<svg width="136" height="52" viewBox="0 0 136 52" fill="none" xmlns="http://www.w3.org/2000/svg">
<path d="M25.632 51L9.376 31.096V51H0.416V6.328H9.376V26.36L25.632 6.328H36.448L18.016 28.472L36.96 51H25.632ZM88.21 11.32C86.6313 11.32 85.3087 10.8293 84.242 9.848C83.218 8.824 82.706 7.56533 82.706 6.072C82.706 4.57866 83.218 3.34133 84.242 2.36C85.3087 1.336 86.6313 0.823997 88.21 0.823997C89.7887 0.823997 91.09 1.336 92.114 2.36C93.1807 3.34133 93.714 4.57866 93.714 6.072C93.714 7.56533 93.1807 8.824 92.114 9.848C91.09 10.8293 89.7887 11.32 88.21 11.32ZM92.626 15.544V51H83.666V15.544H92.626ZM121.127 15.032C125.351 15.032 128.764 16.376 131.367 19.064C133.969 21.7093 135.271 25.4213 135.271 30.2V51H126.311V31.416C126.311 28.6 125.607 26.4453 124.199 24.952C122.791 23.416 120.871 22.648 118.439 22.648C115.964 22.648 114.001 23.416 112.551 24.952C111.143 26.4453 110.439 28.6 110.439 31.416V51H101.479V15.544H110.439V19.96C111.633 18.424 113.148 17.2293 114.983 16.376C116.86 15.48 118.908 15.032 121.127 15.032Z" fill="white"/>
<path d="M58.5975 51.576C55.1842 51.576 52.1122 50.8293 49.3815 49.336C46.6508 47.8 44.4962 45.6453 42.9175 42.872C41.3815 40.0987 40.6135 36.8987 40.6135 33.272C40.6135 29.6453 41.4028 26.4453 42.9815 23.672C44.6028 20.8987 46.8002 18.7653 49.5735 17.272C52.3468 15.736 55.4402 14.968 58.8535 14.968C62.2668 14.968 65.3602 15.736 68.1335 17.272C70.9068 18.7653 73.0828 20.8987 74.6615 23.672C76.2828 26.4453 77.0935 29.6453 77.0935 33.272C77.0935 36.8987 76.2615 40.0987 74.5975 42.872C72.9762 45.6453 70.7575 47.8 67.9415 49.336C65.1682 50.8293 62.0535 51.576 58.5975 51.576ZM58.5975 43.768C60.2188 43.768 61.7335 43.384 63.1415 42.616C64.5922 41.8053 65.7442 40.6107 66.5975 39.032C67.4508 37.4533 67.8775 35.5333 67.8775 33.272C67.8775 29.9013 66.9815 27.32 65.1895 25.528C63.4402 23.6933 61.2855 22.776 58.7255 22.776C56.1655 22.776 54.0108 23.6933 52.2615 25.528C50.5548 27.32 49.7015 29.9013 49.7015 33.272C49.7015 36.6427 50.5335 39.2453 52.1975 41.08C53.9042 42.872 56.0375 43.768 58.5975 43.768Z" fill="#BC8AFC"/>
</svg>
